<?xml version="1.0" encoding="iso-8859-1"?>
<!DOCTYPE svg PUBLIC "-//W3C//DTD SVG 1.1//EN" "http://www.w3.org/Graphics/SVG/1.1/DTD/svg11.dtd">
<svg version="1.1" id="Layer_1" xmlns="http://www.w3.org/2000/svg" xmlns:xlink="http://www.w3.org/1999/xlink" x="0px" y="0px"
	 width="32px" height="32px" viewBox="0 0 28.92 31.154" style="enable-background:new 0 0 28.92 31.154;"
	 xml:space="preserve">
<g>
	<path d="M21.709,10.854C21.709,4.861,16.849,0,10.854,0S0,4.861,0,10.854c0,1.252,0.147,2.067,0.561,3.32
		c0.807,2.326,5.035-2.051,6.854,0.53c1.819,2.583-4.103,4.849-0.132,6.399c1.808,0.439,2.319,0.604,3.571,0.604
		C16.849,21.708,21.709,16.85,21.709,10.854z M20.604,10.215c0,1.053-1.004,1.908-2.242,1.908c-1.238,0-2.242-0.854-2.242-1.908
		c0-1.054,1.003-1.909,2.242-1.909C19.599,8.307,20.604,9.162,20.604,10.215z M16.12,3.618c1.238,0,2.242,0.855,2.242,1.909
		c0,1.054-1.003,1.909-2.242,1.909s-2.241-0.855-2.241-1.909C13.879,4.473,14.882,3.618,16.12,3.618z M3.462,11.538
		c-1.238,0-2.241-0.854-2.241-1.908s1.003-1.909,2.241-1.909c1.238,0,2.241,0.855,2.241,1.909S4.7,11.538,3.462,11.538z
		 M6.087,7.144c-1.238,0-2.241-0.854-2.241-1.908c0-1.054,1.003-1.909,2.241-1.909c1.238,0,2.242,0.855,2.242,1.909
		C8.329,6.29,7.325,7.144,6.087,7.144z M8.819,3.059c0-1.054,1.004-1.909,2.242-1.909c1.238,0,2.242,0.855,2.242,1.909
		s-1.003,1.908-2.242,1.908C9.823,4.967,8.819,4.113,8.819,3.059z M12.663,20.173c-1.239,0-2.242-0.855-2.242-1.909
		s1.003-1.908,2.242-1.908c1.237,0,2.241,0.854,2.241,1.908S13.9,20.173,12.663,20.173z M14.904,14.998
		c0-1.054,1.003-1.909,2.241-1.909c1.238,0,2.242,0.855,2.242,1.909s-1.004,1.909-2.242,1.909
		C15.907,16.907,14.904,16.052,14.904,14.998z"/>
	<path d="M28.625,17.022c0.375-0.364,0.397-0.964,0.041-1.364c-0.358-0.399-0.958-0.445-1.36-0.113l-0.002-0.003l-9.274,8.289
		c-1.299-1.101-2.521-0.843-3.926,0.413c-1.172,1.047-1.393,2.791-2.055,4.349c-0.22,0.458-0.661,1.21-0.989,1.611
		c-0.236,0.288-0.255,0.501-0.121,0.652c0.34,0.38,1.673,0.359,3.017,0.143v-0.001c1.721-0.275,3.678-0.923,4.494-1.791
		c1.41-1.501,1.598-2.617,0.863-3.855l9.316-8.327L28.625,17.022z M13.658,30.262c-0.028,0.115-0.056,0.226-0.081,0.331
		c-1.292,0.181-2,0.092-2.23-0.004c0.015-0.025,0.037-0.055,0.068-0.094c0.264-0.323,0.592-0.851,0.839-1.302
		c0.469,0.192,1.041,0.275,1.599,0.235C13.796,29.695,13.724,29.996,13.658,30.262z"/>
</g>
</svg>
