<?xml version="1.0" standalone="no"?><!DOCTYPE svg PUBLIC "-//W3C//DTD SVG 1.1//EN" "http://www.w3.org/Graphics/SVG/1.1/DTD/svg11.dtd"><svg t="1525068296964" class="icon" style="" viewBox="0 0 1025 1024" version="1.1" xmlns="http://www.w3.org/2000/svg" p-id="5339" xmlns:xlink="http://www.w3.org/1999/xlink" width="32.03125" height="32"><defs><style type="text/css"></style></defs><path d="M970.666793 405.196103l-97.704013-19.476943a385.388052 385.388052 0 0 0-17.241884-41.188947l55.557183-83.016482a63.858832 63.858832 0 0 0-7.982354-80.462128l-61.623772-61.943067a63.858832 63.858832 0 0 0-80.462129-7.982354l-83.016482 55.557184a386.02664 386.02664 0 0 0-41.188946-17.241885l-19.476944-98.023307a63.858832 63.858832 0 0 0-63.858832-51.40636h-85.890129a63.858832 63.858832 0 0 0-63.858832 51.40636l-19.476944 98.023307a386.02664 386.02664 0 0 0-41.188947 17.241885L261.195169 111.126182a63.858832 63.858832 0 0 0-80.462128 7.982354L119.109268 180.732309a63.858832 63.858832 0 0 0-7.982354 80.462128l55.557184 83.016482a383.152992 383.152992 0 0 0-17.241885 41.188946l-98.023307 19.476944a63.858832 63.858832 0 0 0-51.40636 63.858832v86.848012a63.858832 63.858832 0 0 0 51.40636 63.858832l98.023307 19.476944a385.707346 385.707346 0 0 0 17.241885 41.188946l-55.557184 83.016482a63.858832 63.858832 0 0 0 7.982354 80.462129l61.304478 61.304478a63.858832 63.858832 0 0 0 80.462129 7.982354l83.016482-55.557184a379.321462 379.321462 0 0 0 41.188946 17.241885l19.476944 98.023307a63.858832 63.858832 0 0 0 63.858832 51.40636h86.848012a63.858832 63.858832 0 0 0 63.858832-51.40636l19.796238-98.023307a385.707346 385.707346 0 0 0 41.188946-17.241885l83.016482 55.557184a63.858832 63.858832 0 0 0 80.462128-7.982354l61.304479-61.304478a63.858832 63.858832 0 0 0 7.982354-80.462129l-55.557184-83.016482a375.809227 375.809227 0 0 0 17.241885-41.188946l97.704013-19.476944a63.858832 63.858832 0 0 0 51.40636-63.858832v-87.805894a63.858832 63.858832 0 0 0-53.002831-62.581656zM860.191014 575.060597a63.858832 63.858832 0 0 0-47.894124 41.508241 325.360749 325.360749 0 0 1-13.729649 33.525886 63.858832 63.858832 0 0 0 4.150824 63.858832l55.557184 83.016482-61.304479 61.304479-83.016482-55.557184a63.858832 63.858832 0 0 0-63.858832-4.470118 321.848514 321.848514 0 0 1-34.483769 14.368237 63.858832 63.858832 0 0 0-41.508241 47.894124L554.626502 958.213589h-86.848011L447.343664 860.190282a63.858832 63.858832 0 0 0-41.50824-47.894124 319.29416 319.29416 0 0 1-33.525887-13.729649 63.858832 63.858832 0 0 0-63.858832 4.470118l-83.016482 55.557184-60.985185-61.943067 55.557184-83.016482a63.858832 63.858832 0 0 0 4.470119-63.858832 321.209925 321.209925 0 0 1-14.368238-34.483769A63.858832 63.858832 0 0 0 162.213979 575.060597L64.190672 554.62577v-86.848011L162.213979 447.342933a63.858832 63.858832 0 0 0 47.894124-41.508241A319.29416 319.29416 0 0 1 223.837752 372.308805a63.858832 63.858832 0 0 0-4.470118-63.858832L164.449038 225.752785l61.304479-61.304479 83.016482 55.557184a63.858832 63.858832 0 0 0 63.858832 4.470119 319.29416 319.29416 0 0 1 34.164475-14.368238A63.858832 63.858832 0 0 0 447.343664 162.213247L467.778491 64.18994h86.848011L575.061329 162.213247a63.858832 63.858832 0 0 0 41.50824 47.894124 319.29416 319.29416 0 0 1 33.525887 13.729649 63.858832 63.858832 0 0 0 63.858832-4.470118l83.016482-55.557184 61.304479 61.304479-55.557184 83.016482a63.858832 63.858832 0 0 0-4.470118 63.858832 321.209925 321.209925 0 0 1 14.368237 34.483769 63.858832 63.858832 0 0 0 47.894124 41.508241l97.704013 19.476944v86.848011z" fill="#25c04e" p-id="5340"></path><path d="M511.202497 287.695852a223.505912 223.505912 0 1 0 223.505912 223.505913 223.505912 223.505912 0 0 0-223.505912-223.505913z m0 419.233233A195.72732 195.72732 0 1 1 706.929817 511.201765 195.72732 195.72732 0 0 1 511.202497 706.929085z" fill="#25c04e" p-id="5341"></path><path d="M511.202497 383.4841a127.717664 127.717664 0 1 0 127.717664 127.717665 127.717664 127.717664 0 0 0-127.717664-127.717665z m0 223.505913a95.788248 95.788248 0 1 1 95.788248-95.788248 95.788248 95.788248 0 0 1-95.788248 95.788248z" fill="#25c04e" p-id="5342"></path></svg>