<?xml version="1.0" standalone="no"?><!DOCTYPE svg PUBLIC "-//W3C//DTD SVG 1.1//EN" "http://www.w3.org/Graphics/SVG/1.1/DTD/svg11.dtd"><svg t="1525082575840" class="icon" style="" viewBox="0 0 1024 1024" version="1.1" xmlns="http://www.w3.org/2000/svg" p-id="39830" xmlns:xlink="http://www.w3.org/1999/xlink" width="32" height="32"><defs><style type="text/css"></style></defs><path d="M371.838262 665.414065l38.634926 0 0 38.634926-38.634926 0 0-38.634926Z" p-id="39831" fill="#d3d4da"></path><path d="M426.369226 522.270924 426.369226 644.965338 549.063639 644.965338 825.631582 377.143593 706.558649 244.331751Z" p-id="39832" fill="#d3d4da"></path><path d="M840.649624 110.280686 737.71116 210.955596 860.406596 333.648986 959.69595 243.079224Z" p-id="39833" fill="#d3d4da"></path><path d="M598.455559 739.821729c-46.170552 32.657794-129.35102 29.049616-240.516866-10.411117-161.143097-57.205886-262.509762 82.887802-293.635667 164.924213l50.962695 19.383466c2.928702-7.642051 73.676-186.43718 224.406956-132.919289 130.442888 46.316885 228.108255 47.501874 290.228057 3.581572 62.411445-44.054355 63.130829-115.931383 63.130829-118.967532l-54.530964 0C638.501624 665.880693 637.410779 712.330608 598.455559 739.821729z" p-id="39834" fill="#d3d4da"></path></svg>