<?xml version="1.0" standalone="no"?><!DOCTYPE svg PUBLIC "-//W3C//DTD SVG 1.1//EN" "http://www.w3.org/Graphics/SVG/1.1/DTD/svg11.dtd"><svg t="1525084060117" class="icon" style="" viewBox="0 0 1024 1024" version="1.1" xmlns="http://www.w3.org/2000/svg" p-id="57669" xmlns:xlink="http://www.w3.org/1999/xlink" width="32" height="32"><defs><style type="text/css"></style></defs><path d="M544.695263 1023.825082C312.287349 1023.825082 155.181697 865.669922 147.893441 635.944085 139.380758 368.115246 510.702836 0.262377 510.702836 0.262377 510.702836 0.262377 783.86668 261.939929 856.486865 506.65042 938.669242 783.691616 743.19821 1023.825082 544.695263 1023.825082ZM418.929114 869.518121C367.707249 830.394762 357.649455 765.529281 311.52937 796.402335 271.473114 823.193964 336.600971 893.452754 394.732103 918.670121 452.892388 943.887488 522.713882 944.732925 518.953142 912.897822 515.542238 884.094633 469.188929 907.883502 418.929114 869.518121ZM590.465512 895.872456C576.646979 895.872456 565.452217 905.697025 565.452217 917.79553 565.452217 929.923189 576.646979 939.747758 590.465512 939.747758 604.313199 939.747758 615.507961 929.923189 615.507961 917.79553 615.507961 905.697025 604.313199 895.872456 590.465512 895.872456Z" p-id="57670" fill="#d3d4da"></path></svg>