<?xml version="1.0" standalone="no"?><!DOCTYPE svg PUBLIC "-//W3C//DTD SVG 1.1//EN" "http://www.w3.org/Graphics/SVG/1.1/DTD/svg11.dtd"><svg t="1526356037525" class="icon" style="" viewBox="0 0 1024 1024" version="1.1" xmlns="http://www.w3.org/2000/svg" p-id="32612" xmlns:xlink="http://www.w3.org/1999/xlink" width="32" height="32"><defs><style type="text/css"></style></defs><path d="M509.8 251.5h4.3c191.6 0 354.9 103.9 372.7 237.8l53.1-6.7C918.6 323.1 732 199.4 514 199.4h-4.6C285.5 201.2 102.6 323.1 84.1 483l53.2 5.9C152.5 357.3 316.2 253 509.8 251.5z m376.9 283.6C871.5 666.7 707.9 771 514.2 772.5h-4.3c-191.6 0-355-103.9-372.8-237.8L84 541.4c21.4 159.5 208 283.2 426 283.2h4.6c223.9-1.8 406.7-123.7 425.2-283.6l-53.1-5.9zM298 513.7c1 114 97 206.7 214 206.7h1.8c57.1-0.5 110.7-22.6 150.8-62.3 40.1-39.7 61.9-92.2 61.4-147.9-0.9-114-97-206.7-215.8-206.7-118 1-213.2 95.3-212.2 210.2z m374.5-3c0.4 41.7-16 81.1-46.1 110.9-30.1 29.8-71.6 46.4-114.5 46.7-87.8 0-159.7-69.5-160.5-155-0.7-86.2 70.7-156.9 160.5-157.6 87.9 0 159.9 69.5 160.6 155z m-160.9-50.8l-0.4-52.1c-59 0.5-106.7 47.6-106.2 105.1l53.5-0.4c-0.2-28.8 23.6-52.4 53.1-52.6z" p-id="32613" fill="#ffffff"></path></svg>