<?xml version="1.0" standalone="no"?><!DOCTYPE svg PUBLIC "-//W3C//DTD SVG 1.1//EN" "http://www.w3.org/Graphics/SVG/1.1/DTD/svg11.dtd"><svg t="1525082905643" class="icon" style="" viewBox="0 0 1024 1024" version="1.1" xmlns="http://www.w3.org/2000/svg" p-id="45699" xmlns:xlink="http://www.w3.org/1999/xlink" width="32" height="32"><defs><style type="text/css"></style></defs><path d="M90.432 160.704c0-29.12 23.616-52.672 52.672-52.672h263.488V55.296c0-29.12 23.616-52.672 52.736-52.672h105.408c29.056 0 52.672 23.616 52.672 52.672v52.736h263.36c29.248 0 52.736 23.552 52.736 52.672v52.672H90.432v-52.672z m790.4 158.08v649.92a52.608 52.608 0 0 1-52.608 52.672H195.84a52.736 52.736 0 0 1-52.736-52.672V266.112h737.664v52.672zM353.92 424.192a52.672 52.672 0 0 0-105.408 0v439.104a52.608 52.608 0 0 0 105.408 0V424.192z m210.816 0a52.672 52.672 0 0 0-105.472 0v439.104a52.672 52.672 0 1 0 105.472 0V424.192z m210.688 0a52.672 52.672 0 0 0-105.344 0v439.104a52.672 52.672 0 0 0 105.344 0V424.192z" p-id="45700" fill="#1e8f39"></path></svg>