<?xml version="1.0" standalone="no"?><!DOCTYPE svg PUBLIC "-//W3C//DTD SVG 1.1//EN" "http://www.w3.org/Graphics/SVG/1.1/DTD/svg11.dtd"><svg t="1525082747994" class="icon" style="" viewBox="0 0 1024 1024" version="1.1" xmlns="http://www.w3.org/2000/svg" p-id="43694" xmlns:xlink="http://www.w3.org/1999/xlink" width="32" height="32"><defs><style type="text/css"></style></defs><path d="M922.055111 390.257778L622.364444 78.620444a51.2 51.2 0 0 0-37.148444-15.815111 53.987556 53.987556 0 0 0-38.684444 16.668445L86.698667 557.056a57.344 57.344 0 0 0-0.910223 78.791111L273.180444 830.577778a205.084444 205.084444 0 0 0 148.536889 63.488c55.694222 0 111.672889-22.357333 154.624-66.958222l344.917334-358.172445c21.162667-22.016 21.504-57.230222 0.796444-78.677333z m-427.633778 357.944889a100.920889 100.920889 0 0 1-72.704 32.028444c-25.144889 0-48.753778-10.183111-66.503111-28.615111l-148.878222-154.794667 74.296889-77.084444 216.860444 225.336889-3.072 3.128889z m79.701334-82.716445L357.262222 440.149333l227.612445-236.373333 216.746666 225.336889-227.498666 236.373333zM284.444444 910.222222h568.888889v56.888889H284.444444z" p-id="43695" fill="#d3d4da"></path></svg>