<?xml version="1.0" standalone="no"?><!DOCTYPE svg PUBLIC "-//W3C//DTD SVG 1.1//EN" "http://www.w3.org/Graphics/SVG/1.1/DTD/svg11.dtd"><svg t="1525080527852" class="icon" style="" viewBox="0 0 1113 1024" version="1.1" xmlns="http://www.w3.org/2000/svg" p-id="12718" xmlns:xlink="http://www.w3.org/1999/xlink" width="34.78125" height="32"><defs><style type="text/css"></style></defs><path d="M676.06711352 8.036477C307.11006067 12.87663805-50.85141022 315.07103656 23.11887625 704.38833195c40.08915914 210.96788541 148.99278122 85.64980528 194.92169977-27.09437948 45.29759358-111.6919755 171.87832463-103.9582402 157.25262164 34.30201064-53.18916061 501.69320677 377.69038748 282.20242936 598.49642672 56.29317651C1264.40972392 470.42968133 1045.02416636 3.24892686 676.06711352 8.036477L676.06711352 8.036477zM215.77832674 515.14855986C167.06105477 529.24815969 118.92249686 504.25819775 108.40040814 459.43409839 97.93092935 414.55738911 128.86587152 366.83971452 177.63575439 352.79272559c48.76988288-13.99437802 96.80321897 11.10080377 107.32530867 55.92490313C295.53576269 453.48911816 264.60082052 501.25940267 215.77832674 515.14855986L215.77832674 515.14855986zM381.44861955 350.05698308c-52.18956225-26.83132692-77.07430238-90.17430286-55.39879899-141.46948758 21.62289347-51.50562637 81.4409692-71.3397638 133.57792055-44.71887853 52.13695134 26.88393783 76.91647064 90.27952467 55.34618808 141.52209848C493.40364761 356.79112002 433.58557089 376.94091992 381.44861955 350.05698308L381.44861955 350.05698308zM664.54542545 838.07147333c-57.81887902 27.67309453-120.89880337 8.62811283-140.89077253-42.40401933C503.61007385 744.58271291 534.28196346 680.66102094 592.10084247 652.98792739c57.71365819-27.5678737 120.79358255-8.57550291 140.83816261 42.50924016C752.93097424 746.58190963 722.31169455 810.34576887 664.54542545 838.07147333L664.54542545 838.07147333zM679.32896116 231.63087064c-38.72128739 0-70.1823337-34.77550486-70.1823337-77.54779659 0-42.82490264 31.46104631-77.65301742 70.1823337-77.65301742 38.7738983 0 70.12972378 34.77550486 70.12972378 77.65301742C749.45868494 196.90797669 718.10285945 231.63087064 679.32896116 231.63087064L679.32896116 231.63087064zM947.43179069 371.94292812c-39.03695086 16.99317408-85.59719437-11.2586355-104.06346103-62.97470353-18.46626666-51.82128886-1.89397589-107.58836123 37.19558489-124.63414523 38.87911913-16.99317408 85.54458445 11.2586355 104.06346103 62.92209262C1003.09364224 299.13007175 986.41613064 354.73931239 947.43179069 371.94292812L947.43179069 371.94292812z" fill="#075e21" p-id="12719"></path></svg>