<?xml version="1.0" standalone="no"?><!DOCTYPE svg PUBLIC "-//W3C//DTD SVG 1.1//EN" "http://www.w3.org/Graphics/SVG/1.1/DTD/svg11.dtd"><svg t="1525082311513" class="icon" style="" viewBox="0 0 1024 1024" version="1.1" xmlns="http://www.w3.org/2000/svg" p-id="38118" xmlns:xlink="http://www.w3.org/1999/xlink" width="32" height="32"><defs><style type="text/css"></style></defs><path d="M915.6 686.5L493.2 435.2c-15.4-9.2-25.3-2.2-22.1 15.6l89.8 486c3.3 17.7 14.4 20.2 24.7 5.4 0 0 57.4-82.3 104.5-132.5l90.3 134.5c8.6 12.8 26 16.2 38.7 7.4l30.3-21c12.6-8.7 15.9-26.4 7.3-39.2L766.4 757c60.4-24.9 145.6-46 145.6-46 17.4-4.3 19-15.3 3.6-24.5z" fill="#d3d4da" p-id="38119"></path><path d="M485.9 886l-0.2 0.2-323.9-187.4 0.3-374.1 324.1-186.9 323.9 187.4-0.2 249.7h64l0.2-286.6L486.3 64 98.1 287.7l-0.3 448L485.6 960l0.3-0.2V886z" fill="#d3d4da" p-id="38120"></path></svg>