<?xml version="1.0" standalone="no"?><!DOCTYPE svg PUBLIC "-//W3C//DTD SVG 1.1//EN" "http://www.w3.org/Graphics/SVG/1.1/DTD/svg11.dtd"><svg t="1525082461946" class="icon" style="" viewBox="0 0 1059 1024" version="1.1" xmlns="http://www.w3.org/2000/svg" p-id="39092" xmlns:xlink="http://www.w3.org/1999/xlink" width="33.09375" height="32"><defs><style type="text/css"></style></defs><path d="M150.621295 7.493597h-126.142212v1008.638126h1008.638126V890.114404H150.621295V7.493597z m157.490426 819.549701c52.205391 0 94.544213-42.338822 94.544213-94.544213 0-19.108672-5.620198-36.843518-15.361874-51.705818l101.66313-169.355287a91.00099 91.00099 0 0 0 16.485913 0l101.663129 169.355287c-9.616783 14.8623-15.361873 32.597146-15.361873 51.705818 0 52.205391 42.338822 94.544213 94.544213 94.544213 52.205391 0 94.544213-42.338822 94.544212-94.544213 0-19.858031-6.119771-38.217344-16.485912-53.32943l167.856567-293.624101c2.123186 0.124893 4.121478 0.249787 6.244664 0.249787 52.205391 0 94.544213-42.338822 94.544213-94.544213 0-52.205391-42.338822-94.544213-94.544213-94.544213-52.205391 0-94.544213 42.338822-94.544212 94.544213 0 19.733138 6.119771 38.09245 16.485913 53.204537L692.658129 638.204659c-2.123186-0.249787-4.121478-0.249787-6.244664-0.249786-2.747652 0-5.495304 0.124893-8.242956 0.374679l-101.66313-169.355287c9.616783-14.8623 15.361873-32.597146 15.361873-51.580924 0-52.205391-42.338822-94.544213-94.544212-94.544213-52.205391 0-94.544213 42.338822-94.544213 94.544213 0 18.983779 5.620198 36.718624 15.361873 51.580924l-101.663129 169.355287c-2.747652-0.249787-5.495304-0.37468-8.242957-0.374679-52.205391 0-94.544213 42.338822-94.544212 94.544212-0.124893 52.205391 42.213929 94.544213 94.419319 94.544213z" p-id="39093" fill="#1e8f39"></path></svg>