<?xml version="1.0" standalone="no"?><!DOCTYPE svg PUBLIC "-//W3C//DTD SVG 1.1//EN" "http://www.w3.org/Graphics/SVG/1.1/DTD/svg11.dtd"><svg t="1526354974310" class="icon" style="" viewBox="0 0 1024 1024" version="1.1" xmlns="http://www.w3.org/2000/svg" p-id="15165" xmlns:xlink="http://www.w3.org/1999/xlink" width="32" height="32"><defs><style type="text/css"></style></defs><path d="M249.321739 680.546584l178.086957 133.565217-31.801243 50.881988-184.447205-133.565218z" fill="#fff" p-id="15166"></path><path d="M166.638509 566.062112l260.770187-400.695652 76.322981 50.881987-260.770186 400.695652-76.322982-50.881987z m-31.801242 127.204969l50.881988-76.322982 318.012422 228.968944-50.881988 76.322982-318.012422-228.968944z" fill="#fff" p-id="15167"></path><path d="M433.768944 120.84472c0 44.521739 38.161491 82.68323 76.322981 82.68323s76.322981-38.161491 76.322982-82.68323c0-44.521739-38.161491-82.68323-76.322982-82.683229s-76.322981 38.161491-76.322981 82.683229z" fill="#25c04e" p-id="15168"></path><path d="M516.452174 228.968944c-63.602484 0-108.124224-50.881988-108.124224-114.484472s50.881988-114.484472 108.124224-114.484472 108.124224 57.242236 108.124224 120.84472c0 57.242236-50.881988 108.124224-108.124224 108.124224z m0-159.006211c-25.440994 0-50.881988 25.440994-50.881988 50.881987s25.440994 50.881988 50.881988 50.881988 50.881988-19.080745 50.881987-50.881988c-6.360248-31.801242-25.440994-50.881988-50.881987-50.881987z" fill="#fff" p-id="15169"></path><path d="M83.95528 655.10559c0 44.521739 38.161491 82.68323 76.322981 82.68323s82.68323-38.161491 82.68323-82.68323c0-44.521739-38.161491-82.68323-76.322982-82.68323s-82.68323 38.161491-82.683229 82.68323z" fill="#25c04e" p-id="15170"></path><path d="M160.278261 769.590062c-63.602484 0-108.124224-50.881988-108.124224-114.484472s50.881988-114.484472 108.124224-114.484472 108.124224 50.881988 108.124223 114.484472-44.521739 114.484472-108.124223 114.484472z m0-159.006211c-25.440994 0-50.881988 19.080745-50.881988 50.881988 0 25.440994 25.440994 50.881988 50.881988 50.881987s50.881988-25.440994 50.881987-50.881987c0-31.801242-25.440994-50.881988-50.881987-50.881988z" fill="#fff" p-id="15171"></path><path d="M401.967702 890.434783c0 44.521739 38.161491 82.68323 76.322981 82.683229s76.322981-38.161491 76.322982-82.683229c0-31.801242-12.720497-57.242236-38.161491-69.962733-25.440994-12.720497-57.242236-12.720497-76.322981 0s-38.161491 38.161491-38.161491 69.962733z" fill="#fff" p-id="15172"></path><path d="M478.290683 998.559006c-63.602484 0-108.124224-50.881988-108.124223-114.484472s50.881988-114.484472 108.124223-114.484472 108.124224 50.881988 108.124224 114.484472-50.881988 114.484472-108.124224 114.484472z m0-159.006211c-25.440994 0-50.881988 25.440994-50.881987 50.881988s19.080745 50.881988 50.881987 50.881987 50.881988-25.440994 50.881988-50.881987-25.440994-50.881988-50.881988-50.881988z" fill="#fff" p-id="15173"></path><path d="M529.172671 203.52795l50.881987-31.801242 12.720497 25.440994-50.881987 31.801242-12.720497-25.440994z m330.732919 578.782609l-31.801242-57.242236 57.242236-31.801242 31.801242 57.242236-57.242236 31.801242z m-57.242236-114.484472l-31.801242-57.242236 57.242236-31.801242 25.440994 63.602484-50.881988 25.440994z m-69.962733-108.124224l-31.801242-57.242236 57.242236-31.801242 31.801242 57.242236-57.242236 31.801242z m-57.242236-108.124223l-31.801242-57.242236 57.242236-31.801243 31.801242 57.242237-57.242236 31.801242z m-63.602484-108.124224l-38.161491-57.242236 57.242236-31.801242 31.801242 57.242236-50.881987 31.801242z m298.931677 540.621118v-25.440994l-12.720497-19.080745 12.720497-6.360248v-12.720497h25.440993l19.080746-12.720497 12.720497 25.440994c6.360248 6.360248 6.360248 19.080745 0 31.801242s-25.440994 12.720497-25.440994 12.720497l-31.801242 6.360248z m-248.04969 19.080746l-6.360248-63.602485 63.602484-6.360248 6.360249 63.602484-63.602485 6.360249z m120.844721-6.360249l-6.360249-63.602484 63.602485-6.360249 6.360248 63.602485-63.602484 6.360248z m-216.248448-44.521739h31.801243l6.360248 63.602484h-31.801242l-6.360249-63.602484z" fill="#fff" p-id="15174"></path></svg>