<?xml version="1.0" encoding="utf-8"?>
<!DOCTYPE svg PUBLIC "-//W3C//DTD SVG 1.1//EN" "http://www.w3.org/Graphics/SVG/1.1/DTD/svg11.dtd">
<svg version="1.1" xmlns="http://www.w3.org/2000/svg" xmlns:xlink="http://www.w3.org/1999/xlink" width="32" height="32" viewBox="0 0 512 512">
<g>
</g>
	<path d="M360.704 57.191c-29.209-21.069-65.843-31.59-109.978-31.59-33.587 0-61.901 7.424-84.915 22.221-36.531 23.194-55.936 62.566-58.291 118.119h84.633c0-16.179 4.71-31.769 14.157-46.771s25.472-22.502 48.077-22.502c22.963 0 38.81 6.093 47.462 18.253 8.678 12.211 13.005 25.703 13.005 40.499 0 12.877-6.451 24.653-14.233 35.379-4.275 6.246-9.933 11.981-16.921 17.255 0 0-45.901 29.44-66.073 53.095-11.699 13.721-12.749 34.253-13.773 63.719-0.077 2.099 0.717 6.425 8.064 6.425s59.315 0 65.843 0 7.885-4.839 7.987-6.963c0.461-10.726 1.664-16.205 3.635-22.4 3.712-11.699 13.747-21.913 25.063-30.695l23.296-16.077c21.017-16.384 37.811-29.824 45.209-40.371 12.647-17.357 21.529-38.707 21.529-64.025 0-41.344-14.618-72.525-43.776-93.568zM249.369 382.055c-29.184-0.87-53.248 19.303-54.169 50.944-0.922 31.616 21.965 52.505 51.149 53.376 30.464 0.896 53.888-18.637 54.81-50.253 0.896-31.642-21.325-53.171-51.789-54.067z" fill="#000000" />
</svg>
