<?xml version="1.0" standalone="no"?><!DOCTYPE svg PUBLIC "-//W3C//DTD SVG 1.1//EN" "http://www.w3.org/Graphics/SVG/1.1/DTD/svg11.dtd"><svg t="1526356543431" class="icon" style="" viewBox="0 0 1024 1024" version="1.1" xmlns="http://www.w3.org/2000/svg" p-id="36500" xmlns:xlink="http://www.w3.org/1999/xlink" width="32" height="32"><defs><style type="text/css"></style></defs><path d="M259.156388 639.508046l0 219.164558-91.533716 0L167.622672 639.508046 259.156388 639.508046M341.020884 557.64355 85.758176 557.64355l0 382.89355L341.020884 940.5371 341.020884 557.64355 341.020884 557.64355z" p-id="36501" fill="#ffffff"></path><path d="M559.508014 471.266273l0 387.406331-91.533716 0L467.974297 471.266273 559.508014 471.266273M641.372509 389.401778 386.109802 389.401778l0 551.135322 255.262708 0L641.372509 389.401778 641.372509 389.401778z" p-id="36502" fill="#ffffff"></path><path d="M858.822007 256.614495l0 602.059132L767.289314 858.673627 767.289314 256.614495 858.822007 256.614495M940.686503 174.75 685.424818 174.75l0 765.788124 255.262708 0L940.687526 174.75 940.686503 174.75z" p-id="36503" fill="#ffffff"></path></svg>