<?xml version="1.0" encoding="utf-8"?>
<svg version="1.1" id="Capa_1" xmlns="http://www.w3.org/2000/svg" xmlns:xlink="http://www.w3.org/1999/xlink" x="0px" y="0px"
	 width="32px" height="32px" viewBox="0 0 64 64" style="enable-background:new 0 0 64 64;" xml:space="preserve">
<g>
	<path d="M22.587,16.674h2.949c0.146,0,0.263-0.117,0.263-0.262s-0.117-0.264-0.263-0.264h-2.949c-0.146,0-0.263,0.119-0.263,0.264
		S22.441,16.674,22.587,16.674z"/>
	<path d="M57.334,41.654v-2.949c0-0.145-0.117-0.262-0.263-0.262c-0.145,0-0.262,0.117-0.262,0.262v2.949
		c0,0.146,0.117,0.264,0.262,0.264C57.217,41.918,57.334,41.801,57.334,41.654z"/>
	<path d="M13.071,50.756c0,1.48,1.203,2.684,2.683,2.684h16.615c0.986,0,1.845-0.536,2.308-1.332
		c0.278-0.477,0.78-0.937,1.333-0.937h20.883c1.479,0,2.683-1.203,2.683-2.682V31.873c0-1.48-1.203-2.683-2.683-2.683H36.084
		c-0.552,0-1,0.235-1,0.524s0.448,0.524,1,0.524h20.809c0.9,0,1.634,0.734,1.634,1.635v16.615c0,0.9-0.733,1.633-1.634,1.633H36.052
		c-0.552,0-1-0.232-1-0.519c0-0.286,0.448-0.519,1-0.519H54.95c0.146,0,0.263-0.117,0.263-0.262V31.539
		c0-0.145-0.117-0.262-0.263-0.262H36.052c-0.552,0-1-0.448-1-1V16.592c0-1.481-1.203-2.684-2.683-2.684H15.754
		c-1.479,0-2.683,1.203-2.683,2.684V50.756z M36.052,31.801h17.637c0.552,0,1,0.448,1,1v14.758c0,0.552-0.448,1-1,1H36.052
		c-0.552,0-1-0.448-1-1V32.801C35.052,32.249,35.499,31.801,36.052,31.801z M34.003,16.592v34.164c0,0.902-0.732,1.635-1.634,1.635
		H15.754c-0.9,0-1.634-0.732-1.634-1.635V16.592c0-0.9,0.733-1.635,1.634-1.635h16.615C33.27,14.957,34.003,15.691,34.003,16.592z"
		/>
	<path d="M15.158,18.533v29.994c0,0.145,0.117,0.262,0.262,0.262h17.282c0.146,0,0.263-0.117,0.263-0.262V18.533
		c0-0.144-0.117-0.262-0.263-0.262H15.42C15.275,18.271,15.158,18.389,15.158,18.533z M16.683,18.795H31.44c0.552,0,1,0.448,1,1
		v27.471c0,0.552-0.448,1-1,1H16.683c-0.552,0-1-0.448-1-1V19.795C15.683,19.243,16.13,18.795,16.683,18.795z"/>
	<path d="M25.572,49.389h-3.021c-0.62,0-1.125,0.504-1.125,1.125v0.18c0,0.621,0.505,1.125,1.125,1.125h3.021
		c0.62,0,1.125-0.504,1.125-1.125v-0.18C26.697,49.893,26.192,49.389,25.572,49.389z M26.173,50.693
		c0,0.332-0.269,0.601-0.601,0.601h-3.021c-0.33,0-0.601-0.27-0.601-0.601v-0.18c0-0.33,0.271-0.6,0.601-0.6h3.021
		c0.332,0,0.601,0.27,0.601,0.6V50.693z"/>
	<path d="M40.066,9.195c-1.506-0.633-3.102-0.953-4.743-0.953c-3.1,0-6.059,1.146-8.331,3.231c0,0-0.028,0.025-0.065,0.059
		c-0.035,0.033,0.095,0.232,0.29,0.445c0.196,0.215,0.384,0.359,0.419,0.328l0.065-0.059c2.079-1.906,4.785-2.955,7.622-2.955
		c1.5,0,2.96,0.293,4.338,0.871c4.59,1.926,7.316,6.613,6.837,11.463c-0.038,0.385-0.39,0.602-0.76,0.49l-0.948-0.287
		c-0.369-0.113-0.521,0.072-0.339,0.412l1.32,2.473c0.182,0.34,0.605,0.469,0.946,0.287l2.472-1.32
		c0.341-0.182,0.317-0.42-0.053-0.533l-1.049-0.318c-0.37-0.111-0.613-0.512-0.569-0.895C48.141,16.557,45.148,11.328,40.066,9.195z
		"/>
</g>
</svg>