<?xml version="1.0" standalone="no"?><!DOCTYPE svg PUBLIC "-//W3C//DTD SVG 1.1//EN" "http://www.w3.org/Graphics/SVG/1.1/DTD/svg11.dtd"><svg t="1525083190617" class="icon" style="" viewBox="0 0 1024 1024" version="1.1" xmlns="http://www.w3.org/2000/svg" p-id="55241" xmlns:xlink="http://www.w3.org/1999/xlink" width="32" height="32"><defs><style type="text/css"></style></defs><path d="M933.4 412.8L844 395c-4.6-13-9.8-25.4-15.7-37.6l50.7-75.9c15.4-23.1 12.3-54-7.4-73.6l-56.1-56.1c-11.2-11.3-26.1-17.1-41.2-17.1-11.2 0-22.5 3.3-32.3 9.8L666 195c-12.3-5.9-24.8-11.2-37.7-15.6L610.4 90C605 62.8 581 43.1 553.3 43.1H474c-27.9 0-51.7 19.7-57.2 46.9l-17.9 89.4c-13 4.4-25.4 9.7-37.6 15.6l-75.9-50.5c-9.8-6.6-21.2-9.8-32.3-9.8-15.1 0-30 5.7-41.3 17.1l-56.1 56.1c-19.7 19.7-22.6 50.5-7.2 73.6l50.5 75.9c-5.9 12.1-11 24.6-15.6 37.6L94 412.9c-27.3 5.4-47 29.3-47 57.2v79.4c0 27.7 19.7 51.7 46.9 57.1l89.4 17.9c4.6 13 9.7 25.6 15.6 37.7l-50.5 75.9c-15.4 23.1-12.5 53.8 7.2 73.5l56.1 56.1c11.3 11.3 26.2 17.1 41.3 17.1 11.2 0 22.5-3.1 32.3-9.7l75.9-50.7c12.1 5.9 24.6 11.2 37.6 15.7l17.9 89.4c5.6 27.2 29.4 46.7 57.2 46.7h79.4c27.7 0 51.7-19.5 57.1-46.7l18-89.4c12.8-4.6 25.4-9.8 37.6-15.7l75.9 50.7c9.8 6.6 21.2 9.7 32.3 9.7 15.1 0 30-5.7 41.2-17.1l56.1-56.1c19.7-19.7 22.8-50.4 7.4-73.5l-50.7-75.9c5.9-12.3 11.2-24.8 15.7-37.7l89.4-17.9c27.2-5.4 46.9-29.4 46.9-57.1v-79.4c0.1-27.9-19.6-51.8-46.8-57.3zM832.5 567.4c-20.3 3.9-36.9 18.4-43.6 37.9-3.8 10.8-8.2 21.3-13.1 31.5-9 18.5-7.4 40.5 3.9 57.7l50.7 75.9-56.1 56.1-75.9-50.7c-9.7-6.4-21-9.7-32.3-9.7-8.7 0-17.4 1.8-25.4 5.7-10.2 4.9-20.5 9.3-31.3 13.1-19.5 6.7-34 23.3-38.1 43.6l-18 89.5H474l-17.9-89.4c-4.1-20.3-18.5-36.9-38.1-43.6-10.8-3.8-21.2-8.2-31.3-13.1-8-3.9-16.7-5.7-25.4-5.7-11.3 0-22.6 3.3-32.3 9.7l-76 50.6-56.1-56.1 50.5-75.9c11.5-17.2 13-39.2 3.9-57.7-4.9-10.2-9.2-20.7-13-31.3-6.7-19.5-23.5-34.1-43.6-38.1l-89.4-17.9v-79.4l89.4-17.9c20.2-4.1 36.9-18.5 43.6-38.1 3.8-10.8 8-21.2 13-31.3 9-18.7 7.5-40.7-3.9-57.7l-50.5-75.9L253 193l75.9 50.5c9.7 6.6 21 9.8 32.3 9.8 8.7 0 17.4-2 25.4-5.9 10-4.8 20.5-9.2 31.3-13 19.5-6.9 34-23.5 38.1-43.6l17.9-89.4h79.4l17.9 89.4c3.9 20.2 18.4 36.7 38.1 43.6 10.7 3.8 21.2 8 31.3 13 8 3.9 16.7 5.9 25.4 5.9 11.3 0 22.6-3.3 32.3-9.8l75.9-50.5 56.1 56.1-50.7 75.9c-11.3 17.1-12.8 39-3.9 57.7 4.9 10 9.3 20.5 13.1 31.3 6.7 19.5 23.3 34 43.6 38.1l89.4 17.9v79.4l-89.3 18z" fill="#2c2c2c" p-id="55242"></path><path d="M513.7 509.7m-119.4 0a119.4 119.4 0 1 0 238.8 0 119.4 119.4 0 1 0-238.8 0Z" fill="#F3DA25" p-id="55243"></path><path d="M580.4 609.4c-19 12.8-42 20.3-66.8 20.3-66 0-119.4-53.4-119.4-119.4s53.4-119.4 119.4-119.4S633 444.3 633 510.3c0.2 20.7-5.1 40.2-14.4 57.2l41.9 25.9c14.1-24.7 22.3-53.3 22.3-83.7 0-93.3-75.4-169.2-169.2-169.2-93.3 0-169.2 76-169.2 169.2s76 169.2 169.2 169.2c36.2 0 69.7-11.5 97.3-30.9l-30.5-38.6z" fill="#2c2c2c" p-id="55244"></path></svg>