<?xml version="1.0" standalone="no"?><!DOCTYPE svg PUBLIC "-//W3C//DTD SVG 1.1//EN" "http://www.w3.org/Graphics/SVG/1.1/DTD/svg11.dtd"><svg t="1526354432937" class="icon" style="" viewBox="0 0 1024 1024" version="1.1" xmlns="http://www.w3.org/2000/svg" p-id="5458" xmlns:xlink="http://www.w3.org/1999/xlink" width="32" height="32"><defs><style type="text/css"></style></defs><path d="M739.15493 465.126761l-151.43662-259.605634-82.929577-108.169014c0 0 0 0-3.605634 0 0 0 0 0-3.605634 0 0 0-3.605634 0-7.211268-3.605634 0 0 0 0 0 0 0 0 0 0 0 0 0 0 0 0 0 0-3.605634 0-3.605634 0-7.211268 3.605634 0 0 0 0-3.605634 0 0 0 0 0-3.605634 3.605634L396.619718 219.943662l-115.380282 205.521127L79.323944 811.267606c0 0 0 0 0 0l-3.605634 7.211268c0 0 0 0 0 0 0 0 0 3.605634 0 3.605634 0 0 0 0 0 3.605634 0 0 0 0 0 0 0 0 0 0 0 0 0 0 0 0 0 0 0 0 0 0 0 0 0 0 0 3.605634 0 3.605634 0 0 0 0 0 0 0 0 0 0 3.605634 3.605634 0 0 0 0 0 0 3.605634 0 68.507042 28.84507 245.183099 28.84507 46.873239 0 93.746479-3.605634 144.225352-7.211268 0 0 126.197183 10.816901 241.577465 10.816901l0 0c176.676056 0 201.915493-25.239437 212.732394-32.450704 3.605634-3.605634 7.211268-10.816901 3.605634-14.422535C930.253521 818.478873 886.985915 670.647887 739.15493 465.126761zM310.084507 804.056338l180.28169-25.239437 198.309859 21.633803-209.126761 28.84507L310.084507 804.056338zM775.211268 623.774648l-93.746479-126.197183-75.71831-165.859155 111.774648 144.225352L775.211268 623.774648zM490.366197 753.577465l-248.788732-10.816901 111.774648-219.943662 147.830986-230.760563 137.014085 187.492958 25.239437 32.450704 115.380282 230.760563L490.366197 753.577465zM515.605634 270.422535l21.633803-25.239437 64.901408 140.619718L515.605634 270.422535zM497.577465 248.788732 461.521127 216.338028 493.971831 144.225352l25.239437 75.71831L497.577465 248.788732zM479.549296 270.422535l-86.535211 133.408451 57.690141-158.647887L479.549296 270.422535zM209.126761 735.549296l-7.211268-3.605634 25.239437-39.661972L209.126761 735.549296zM230.760563 771.605634l97.352113 3.605634-100.957746 14.422535L230.760563 771.605634zM782.422535 771.605634l0 14.422535-100.957746-10.816901L782.422535 771.605634zM800.450704 735.549296l-46.873239-93.746479 61.295775 82.929577L800.450704 735.549296zM324.507042 508.394366l-93.746479 137.014085 61.295775-183.887324L396.619718 317.295775 324.507042 508.394366zM173.070423 728.338028 140.619718 757.183099l64.901408-129.802817L173.070423 728.338028zM187.492958 753.577465l14.422535 10.816901 0 28.84507-68.507042 10.816901L187.492958 753.577465zM811.267606 764.394366l18.028169-18.028169 46.873239 61.295775-64.901408-14.422535L811.267606 764.394366zM850.929577 724.732394l-3.605634-7.211268c0 0 0 0 0-3.605634l-43.267606-104.56338c36.056338 61.295775 61.295775 111.774648 75.71831 151.43662L850.929577 724.732394zM594.929577 274.028169l-46.873239-64.901408L540.84507 187.492958l25.239437 32.450704L594.929577 274.028169zM432.676056 212.732394 432.676056 212.732394l-18.028169 21.633803 3.605634-3.605634L432.676056 212.732394zM162.253521 825.690141 216.338028 818.478873l122.591549 21.633803c-3.605634 0-3.605634 0-7.211268 0C252.394366 840.112676 198.309859 832.901408 162.253521 825.690141zM717.521127 843.71831c-32.450704 0-64.901408 0-97.352113-3.605634l176.676056-25.239437 72.112676 18.028169C843.71831 840.112676 796.84507 843.71831 717.521127 843.71831L717.521127 843.71831z" p-id="5459" fill="#d3d4da"></path></svg>