<?xml version="1.0" encoding="iso-8859-1"?>
<svg version="1.1" id="Capa_1" xmlns="http://www.w3.org/2000/svg" xmlns:xlink="http://www.w3.org/1999/xlink" x="0px" y="0px"
	 viewBox="0 0 258.084 258.084" style="enable-background:new 0 0 258.084 258.084;" xml:space="preserve">
<g>
	<path d="M257.124,135.456c-3.768-22.44-19.639-25.945-27.001-26.341c-2.271-0.122-4.387-1.274-5.627-3.181
		c-5.367-8.252-12.582-10.433-18.706-10.433c-2.743,0-5.268,0.438-7.311,0.963c-0.624,0.16-1.257,0.238-1.884,0.238
		c-2.277,0-4.469-1.035-5.851-2.929c-5.288-7.246-12.169-9.208-18.069-9.209c-1.464,0-2.867,0.121-4.171,0.313
		c-0.366,0.053-0.772,0.079-1.13,0.079c-3.963,0-7.348-3.176-7.348-7.271V34.847c0-10.982-8.264-16.473-16.5-16.473
		c-8.236,0-16.5,5.491-16.5,16.473v105.355c0,8.237-6.688,14.194-14.111,14.194c-2.197,0-4.418-0.523-6.574-1.662
		c-10.055-5.313-20.859-9.972-32.109-14.377c-2.513-0.983-4.932-1.428-7.213-1.428c-15.43-0.002-24.113,20.331-7.044,31.316
		c19.591,12.609,44.432,19.509,54.092,33.768c5.972,8.816,18.531,34.03,23.399,43.914c1.226,2.487,3.756,4.112,6.528,4.112h76.996
		c3.65,0,6.735-2.758,7.216-6.376l4.059-30.571c0.145-1.087,0.537-2.143,1.139-3.059
		C254.628,177.691,260.694,156.722,257.124,135.456z" />
	<path d="M64.359,61.042h38c3.313,0,6-2.687,6-6c0-3.314-2.687-6-6-6H77.344l29.617-29.617c2.344-2.343,2.344-6.142,0-8.484
		c-2.342-2.344-6.309-2.344-8.651,0L70.026,39.057V14.042c0-3.314-2.687-6-6-6c-3.314,0-6,2.686-6,6v41
		C58.026,58.355,61.046,61.042,64.359,61.042z"/>
	<path d="M44.026,122.042c3.313,0,6-2.687,6-6v-41c0-3.313-2.354-6-5.667-6h-38c-3.314,0-6,2.687-6,6s2.686,6,6,6h25.016
		L1.758,110.659c-2.344,2.343-2.344,6.142,0,8.484c1.171,1.172,2.707,1.758,4.242,1.758c1.535,0,2.905-0.586,4.076-1.758
		l27.951-28.117v25.016C38.026,119.355,40.713,122.042,44.026,122.042z"/>
</g>
</svg>
