<?xml version="1.0" encoding="utf-8"?>
<!DOCTYPE svg PUBLIC "-//W3C//DTD SVG 1.1//EN" "http://www.w3.org/Graphics/SVG/1.1/DTD/svg11.dtd">
<svg version="1.1" id="Layer_1" xmlns="http://www.w3.org/2000/svg" xmlns:xlink="http://www.w3.org/1999/xlink" x="0px" y="0px"
	 width="32px" height="32px" viewBox="0 0 27.982 31.666" style="enable-background:new 0 0 27.982 31.666;"
	 xml:space="preserve">
<g>
	<path d="M26.276,10.573c-0.014,0.035-0.031,0.067-0.046,0.103c0.018-0.031,0.038-0.061,0.055-0.091
		C26.282,10.581,26.278,10.577,26.276,10.573z"/>
	<path d="M13.238,29.559c-0.546,0.709-1.404,1.115-2.356,1.115c-0.765,0-1.533-0.266-2.164-0.75l-7.827-6.018
		c-0.169-0.13-0.323-0.274-0.465-0.427c0.233,0.785,0.702,1.493,1.379,2.013l6.951,5.342c0.699,0.537,1.554,0.832,2.407,0.832
		c1.101,0,2.1-0.479,2.74-1.313l13.382-17.416c0.543-0.705,0.69-1.721,0.697-2.567L13.238,29.559z"/>
	<path d="M1.061,23.686l7.828,6.018c0.582,0.447,1.289,0.693,1.993,0.693c0.865,0,1.644-0.367,2.136-1.009L27.972,9.926
		c-0.003-0.074-0.006-0.15-0.012-0.219c-0.07-0.912-0.47-2.623-1.652-3.533l-6.951-5.342C18.658,0.296,17.804,0,16.95,0
		c-0.971,0-1.658,0.35-2.112,0.697L0.3,19.617c-0.006,0.007-0.009,0.016-0.015,0.023c-0.262,0.607-0.381,1.331-0.196,2.207
		c0.11,0.604,0.14,0.764,0.177,0.973C0.475,23.146,0.74,23.44,1.061,23.686z M14.449,2.5c0.641-0.834,1.64-1.313,2.74-1.313
		c0.854,0,1.708,0.296,2.405,0.832l5.777,4.21c1.183,0.909,1.503,1.596,1.573,2.508c0.028,0.527-0.125,0.99-0.292,1.327l0.006,0.005
		l-0.036,0.057c-0.072,0.139-0.141,0.244-0.201,0.326l-0.428,0.685l-0.079,0.104c0.125-0.174,0.23-0.361,0.315-0.563
		c-0.03,0.055-0.058,0.109-0.098,0.161l-0.221,0.407l-5.022,6.554l-0.721-0.552l-0.013,0.018l-9.076-6.973L9.514,9.099L14.449,2.5z"
		/>
</g>
</svg>
