<?xml version="1.0" encoding="utf-8"?>
<!DOCTYPE svg PUBLIC "-//W3C//DTD SVG 1.1//EN" "http://www.w3.org/Graphics/SVG/1.1/DTD/svg11.dtd">
<svg version="1.1" id="Layer_1" xmlns="http://www.w3.org/2000/svg" xmlns:xlink="http://www.w3.org/1999/xlink" x="0px" y="0px"
	 width="32px" height="32px" viewBox="0 0 226.77 155.91" enable-background="new 0 0 226.77 155.91" xml:space="preserve">
<g>
	<path d="M76.494,149.212c11.645,0,17.827-10.4,19.645-16.544c0.029-0.097,0.056-0.197,0.081-0.297
		c4.236-17.545,10.984-45.353,15.983-65.58h17.886c3.363,0,6.09-2.726,6.09-6.09s-2.727-6.09-6.09-6.09H115.23
		c1.599-6.373,2.771-10.912,3.233-12.461l0.511-1.734c1.888-6.443,6.308-21.535,13.146-21.535c6.341,0,7.286,9.764,7.328,10.236
		c0.27,3.343,3.186,5.868,6.538,5.579c3.353-0.256,5.864-3.187,5.605-6.539c-0.57-7.423-5.376-21.459-19.472-21.459
		c-15.961,0-21.954,20.458-24.833,30.292l-0.49,1.659c-0.585,1.946-2.12,7.942-4.122,15.962H81.366c-3.364,0-6.09,2.726-6.09,6.09
		s2.726,6.09,6.09,6.09h18.291c-6.253,25.362-14.334,58.815-15.223,62.498c-0.332,0.965-2.829,7.742-7.937,7.742
		c-7.8,0-11.177-10.948-11.204-11.03c-0.936-3.229-4.305-5.097-7.544-4.156c-3.23,0.936-5.092,4.314-4.156,7.545
		C55.724,136.751,62.944,149.212,76.494,149.212z"/>
	<path d="M166.812,133.507c3.589,0,6.606-2.549,6.606-6.607c0-1.886-0.755-3.586-2.36-5.474l-12.646-14.534l12.271-14.346
		c1.132-1.416,1.98-2.926,1.98-4.909c0-3.589-2.926-6.231-6.702-6.231c-2.548,0-4.528,1.605-6.229,3.684L150.2,97.544l-9.342-12.455
		c-1.889-2.358-3.869-3.682-6.701-3.682c-3.589,0-6.607,2.551-6.607,6.609c0,1.886,0.756,3.586,2.358,5.472l11.798,13.591
		l-12.931,15.289c-1.226,1.416-1.981,2.926-1.981,4.908c0,3.589,2.926,6.23,6.7,6.23c2.548,0,4.53-1.604,6.229-3.682l10.191-13.4
		l10.193,13.4C161.999,132.186,163.981,133.507,166.812,133.507z"/>
</g>
</svg>