<?xml version="1.0" encoding="utf-8"?>
<!DOCTYPE svg PUBLIC "-//W3C//DTD SVG 1.1//EN" "http://www.w3.org/Graphics/SVG/1.1/DTD/svg11.dtd">
<svg version="1.1" id="Layer_1" xmlns="http://www.w3.org/2000/svg" xmlns:xlink="http://www.w3.org/1999/xlink" width="32px" height="32px" x="0px" y="0px"
	 viewBox="0 0 44 33" enable-background="new 0 0 44 33" xml:space="preserve">
<g id="straightensvg">
	<path id="path-1" d="M44,17.5h-1.9l-2.1,13.8c-0.2,1.1-1.2,1.8-2.3,1.7L4.1,27.7c-1.1-0.2-1.8-1.2-1.7-2.3l1.2-8H3v-1h0.8L6.1,1.7
		C6.2,0.6,7.2-0.1,8.3,0l33.6,5.2c1.1,0.2,1.8,1.2,1.7,2.3l-1.4,9H44V17.5z M8,2L4.4,25.7L38,30.9L40,17.5h-1v-1h1.2l1.4-9.3L8,2z
		 M36,16.5h2v1h-2V16.5z M33,16.5h2v1h-2V16.5z M30,16.5h2v1h-2V16.5z M27,16.5h2v1h-2V16.5z M24,16.5h2v1h-2V16.5z M21,16.5h2v1h-2
		V16.5z M18,16.5h2v1h-2V16.5z M15,16.5h2v1h-2V16.5z M12,16.5h2v1h-2V16.5z M9,16.5h2v1H9V16.5z M6,16.5h2v1H6V16.5z M0,16.5h2v1H0
		V16.5z"/>
</g>
</svg>