<?xml version="1.0" encoding="utf-8"?>
<!DOCTYPE svg PUBLIC "-//W3C//DTD SVG 1.1//EN" "http://www.w3.org/Graphics/SVG/1.1/DTD/svg11.dtd">
<svg version="1.1" id="Layer_1" xmlns="http://www.w3.org/2000/svg" xmlns:xlink="http://www.w3.org/1999/xlink" width="32px" height="32px" x="0px" y="0px"
	 viewBox="0 0 39 44" enable-background="new 0 0 39 44" xml:space="preserve">
<g id="flip-horizontalsvg">
	<path id="path-1" d="M19,44v-2h1v2H19z M19,39h1v2h-1V39z M19,36h1v2h-1V36z M19,33h1v2h-1V33z M19,30h1v2h-1V30z M19,27h1v2h-1V27
		z M19,24h1v2h-1V24z M19,21h1v2h-1V21z M19,18h1v2h-1V18z M19,15h1v2h-1V15z M19,12h1v2h-1V12z M19,9h1v2h-1V9z M19,6h1v2h-1V6z
		 M19,3h1v2h-1V3z M19,0h1v2h-1V0z M15,39H1c-0.7,0-1.2-0.8-0.9-1.4L14,6.6c0.5-1,2-0.7,2,0.4V38C16,38.5,15.5,39,15,39z M14,12
		L3,37h11V12z"/>
	<path id="path-2" opacity="0.25" d="M23,7V38c0,0.6,0.5,1,1,1H38c0.7,0,1.2-0.8,0.9-1.4L25,6.6C24.5,5.6,23,5.9,23,7z"/>
	<path id="path-3" d="M38,39H24c-0.6,0-1-0.5-1-1V7c0-1.1,1.5-1.4,2-0.4l13.9,30.9C39.2,38.2,38.7,39,38,39z M25,12v25h11L25,12z"/>
</g>
</svg>