<svg version="1.1" id="Layer_1" xmlns="http://www.w3.org/2000/svg" xmlns:xlink="http://www.w3.org/1999/xlink" x="0px" y="0px"
	 width="32px" height="32px" viewBox="0 0 100 100" enable-background="new 0 0 100 100" xml:space="preserve">
<g>
	<path fill="#231F20" d="M76.482,44.875c-0.407,0-1.44,0.14-2.502,0.47c-0.271-3.613-3.299-6.47-6.98-6.47
		c-1.68,0-3.223,0.594-4.43,1.584c-0.986-2.673-3.56-4.584-6.57-4.584c-1.751,0-3.552,0.536-5,1.572v-7.284
		c4.146-2.304,6.965-6.716,6.965-11.788c0-7.444-6.056-13.5-13.5-13.5s-13.5,6.056-13.5,13.5c0,4.995,2.732,9.354,6.775,11.688
		l0.071,31.554l-5.76-6.045c-1.55-1.551-3.6-2.405-5.772-2.405s-4.223,0.854-5.772,2.405c-3.204,3.203-3.211,8.41-0.072,11.545
		c0.052,0.059,5.269,5.875,12.712,13.318l1.211,1.215c7.058,7.096,13.152,13.225,25.35,13.225c12.629,0,16.854-6.338,20.1-12.83
		c3.122-6.244,3.158-30.156,3.158-31.17C82.965,47.678,79.936,44.875,76.482,44.875z M77.123,80.703
		c-3.056,6.112-6.475,11.172-17.416,11.172c-10.95,0-16.366-5.445-23.223-12.34l-1.217-1.221
		c-7.381-7.381-12.547-13.141-12.655-13.258c-0.981-0.982-1.521-2.289-1.518-3.679c0.004-1.392,0.548-2.7,1.533-3.685
		c0.983-0.984,2.28-1.526,3.651-1.526s2.667,0.542,3.625,1.5l8.33,8.742c0.426,0.446,1.08,0.585,1.645,0.357
		c0.57-0.229,0.942-0.782,0.941-1.396l-0.104-45.997c0-2.076,0.985-4.5,3.763-4.5c3.268,0,3.521,3.444,3.521,4.5v28
		c0,0.829,0.672,1.5,1.5,1.5s1.5-0.671,1.5-1.5v-4c0-3.302,2.99-4.5,5-4.5c2.206,0,4,1.794,4,4v5.5c0,0.829,0.672,1.5,1.5,1.5
		s1.5-0.671,1.5-1.5v-2.5c0-2.206,1.794-4,4-4s4,1.794,4,4v6.5c0,0.828,0.672,1.5,1.5,1.5s1.5-0.672,1.5-1.5v-3.82
		c0.6-0.292,1.776-0.681,2.482-0.681c1.79,0,3.482,1.458,3.482,3C79.965,57.591,79.453,76.043,77.123,80.703z"/>
	<path fill="#231F20" d="M65.359,22.143c0.184,0.153,0.411,0.232,0.641,0.232c0.144,0,0.289-0.031,0.424-0.094
		C66.775,22.116,67,21.763,67,21.375V20h4v4h-1c-0.388,0-0.741,0.412-0.905,0.763c-0.165,0.352-0.111,0.86,0.137,1.158l2.5,3.047
		c0.19,0.228,0.472,0.383,0.769,0.383s0.578-0.12,0.769-0.348l2.5-2.994c0.248-0.298,0.302-0.897,0.137-1.249
		C75.741,24.409,75.388,24,75,24h-1v-4h4v1.375c0,0.388,0.225,0.741,0.576,0.906c0.135,0.063,0.279,0.094,0.424,0.094
		c0.229,0,0.457-0.079,0.641-0.232l3-2.5C82.868,19.453,83,19.171,83,18.875s-0.132-0.578-0.359-0.768l-3-2.5
		c-0.299-0.248-0.714-0.302-1.064-0.138C78.225,15.633,78,15.986,78,16.375V17h-4v-4h1c0.388,0,0.741-0.037,0.905-0.389
		c0.165-0.352,0.111-0.673-0.137-0.971l-2.5-2.953c-0.381-0.456-1.156-0.433-1.537,0.023l-2.5,3.012
		c-0.248,0.298-0.302,0.532-0.137,0.883C69.259,12.957,69.612,13,70,13h1v4h-4v-0.625c0-0.388-0.225-0.741-0.576-0.906
		c-0.349-0.162-0.765-0.111-1.064,0.138l-3,2.5C62.132,18.296,62,18.578,62,18.875s0.132,0.578,0.359,0.768L65.359,22.143z"/>
</g>
</svg>