<svg version="1.1" xmlns="http://www.w3.org/2000/svg" xmlns:xlink="http://www.w3.org/1999/xlink" width="32" height="32" viewBox="0 0 512 512">
<g>
</g>
	<path d="M470.32 41.28c-26.32-26.288-60.976-41.28-95.136-41.28-28.816 0-55.344 10.688-74.72 30.032l-77.872 78.464c-0.24 0.224-0.512 0.368-0.752 0.608-0.128 0.128-0.208 0.304-0.336 0.416l0.032 0.032-165.264 166.544c-7.616 7.568-13.136 16.992-16.208 27.28l-37.584 136.128c-0.032 0.368-2.48 11.056-2.48 16.496 0 30.912 25.104 56 56.064 56 6.16 0 18.080-2.944 18.512-3.008l135.648-35.664c10.304-3.056 19.664-8.624 27.28-16.256l244.208-246.128c44.416-44.448 39.408-118.944-11.392-169.664zM256.224 380.72c-1.312-14.432-5.392-28.592-11.504-42.032l151.28-151.264c9.248 29.216 4.496 59.776-15.776 80.064-0.128 0.128-0.288 0.208-0.4 0.336l0.224 0.208-123.648 124.64c0-3.984 0.192-7.888-0.176-11.952zM236.688 324.096c-5.968-9.808-12.752-19.28-21.152-27.664-9.776-9.776-20.992-17.44-32.704-23.872l152.512-152.512c11.968 5.312 23.44 12.88 33.568 23.008 8.656 8.624 15.344 18.288 20.496 28.336l-152.72 152.704zM167.776 264.992c-14.816-5.968-30.336-9.376-45.888-9.584l123.248-124.192c18.864-18.4 46.336-23.696 73.392-16.992l-150.752 150.768zM66.672 477.968c-1.744 0.4-7.168 1.776-10.848 2.032-13.152-0.16-23.824-10.848-23.824-24 0.192-2.688 1.264-7.312 1.632-8.992l16.848-61.024c18.288-0.496 37.968 6.624 53.44 22.128 15.712 15.68 23.104 35.744 22.304 54.256l-59.552 15.6zM141.984 458.192c-0.384-21.472-9.12-43.808-26.752-61.408-16.672-16.688-38.496-26.32-60.256-27.184l15.936-57.712c1.152-3.84 3.44-7.632 6.256-10.944 32.096-22.976 81.456-16.192 115.744 18.128 36.272 36.256 41.872 89.376 13.936 121.088-1.856 0.976-3.728 1.904-5.744 2.496l-59.12 15.536zM459.056 188.352l-26.944 27.152c0-3.616 0.432-7.088 0.096-10.784-2.816-30.96-17.248-60.896-40.688-84.304-26.064-26.080-60.624-41.040-94.848-41.136l26.496-26.72c13.264-13.232 31.776-20.56 52.016-20.56 25.744 0 52.192 11.648 72.528 31.92 19.088 19.056 30.464 42.736 32.096 66.688 1.504 22.352-5.872 42.848-20.752 57.744z" fill="#000000" />
</svg>