<?xml version="1.0" encoding="utf-8"?>
<!-- Generator: Adobe Illustrator 16.0.4, SVG Export Plug-In . SVG Version: 6.00 Build 0)  -->
<!DOCTYPE svg PUBLIC "-//W3C//DTD SVG 1.1//EN" "http://www.w3.org/Graphics/SVG/1.1/DTD/svg11.dtd">
<svg version="1.1" id="Capa_1" xmlns="http://www.w3.org/2000/svg" xmlns:xlink="http://www.w3.org/1999/xlink" x="0px" y="0px"
	 width="32px" height="32px" viewBox="0 0 50 50" enable-background="new 0 0 50 50" xml:space="preserve">
<path d="M35.648,19.375c0-8.783-7.146-15.928-15.927-15.928c-8.782,0-15.929,7.145-15.929,15.928s7.146,15.928,15.928,15.928
	C28.502,35.303,35.648,28.158,35.648,19.375z M31.65,19.375c0,2.661-0.887,5.112-2.365,7.1h-1.145V11.92h-3.982v14.555h-1.327v-10.7
	h-3.982v10.698h-1.16V18.75h-3.982v7.723h-1.588V10.19c2.066-1.713,4.716-2.745,7.603-2.745C26.298,7.446,31.65,12.797,31.65,19.375
	z M7.792,19.375c0-2.95,1.083-5.649,2.864-7.733v14.833v0.635C8.874,25.024,7.792,22.325,7.792,19.375z M11.433,27.938h0.045
	c0.213,0,0.426,0,0.64,0c5.296,0,10.594,0,15.89,0c-2.148,2.08-5.068,3.367-8.288,3.367C16.5,31.305,13.582,30.018,11.433,27.938z
	 M30.449,34.316l3.521-3.522l12.236,12.237l-3.521,3.521L30.449,34.316z"/>
</svg>
