<?xml version='1.0' encoding='iso-8859-1'?>
<!DOCTYPE svg PUBLIC '-//W3C//DTD SVG 1.1//EN' 'http://www.w3.org/Graphics/SVG/1.1/DTD/svg11.dtd'>
<svg version="1.1" xmlns="http://www.w3.org/2000/svg" viewBox="0 0 460 460" xmlns:xlink="http://www.w3.org/1999/xlink" enable-background="new 0 0 460 460">
  <g>
    <path d="m196.34,322.257c4.736-6.244 8.469-13.52 9.927-21.815l60.606,19.586c11.756,4.436 19.642,15.832 19.642,28.405v104.123c0,4.111 3.332,7.444 7.444,7.444h63.029c3.86,0 7.079-2.95 7.416-6.795l23.61-269.658c9.22-6.411 17.813-16.886 25.207-30.973 10.304-19.629 16.961-43.942 16.961-61.943 0-3.062-0.268-6.215-0.92-9.358l7.093-7.093c5.571-5.572 8.268-13.26 7.399-21.093l-2.831-25.482c-0.316-2.844-2.234-5.255-4.935-6.202-2.698-0.947-5.704-0.263-7.728,1.761l-19.77,19.77c-2.207,2.207-4,4.829-5.283,7.678-0.849-9.136-7.143-48.765-52.247-50.606-1.846-0.087-3.548,0.875-4.475,2.455-0.928,1.579-0.904,3.552 0.052,5.115 0.05,0.082 5.015,8.332 0.57,13.072-6.98,7.446-13.636,14.561-12.578,30.649-1.265,0.37-2.493,0.766-3.685,1.19-1.281-3.574-3.354-6.87-6.038-9.554l-19.77-19.77c-2.024-2.024-5.029-2.707-7.728-1.761-2.7,0.947-4.619,3.358-4.935,6.202l-2.832,25.483c-0.87,7.833 1.827,15.522 7.4,21.093l6.566,6.567c-0.717,3.118-1.087,6.417-1.087,9.884 0,1.575 0.076,3.221 0.186,4.897l-36.238,69.024c-0.374,0.711-0.569,1.503-0.569,2.307v26.244c-31.316,1.116-83.544,5.904-132.005,23.904-3.982,1.479-7.647,3.408-11.004,5.769-7.875-9.265-24.507-24.289-47.845-21.402-6.381,0.789-28.427,5.081-44.231,27.2-14.565,20.388-18.277,48.2-11.033,82.665 2.54,12.083 6.021,29.856 6.929,44.647 1.229,20-2.995,22.74-3.038,22.763-2.841,1.455-4.438,4.56-3.97,7.716 0.468,3.157 2.896,5.665 6.038,6.234 0.392,0.071 4.204,0.733 9.693,0.733 8.764,0 21.801-1.688 31.998-10.163 9.674-8.04 14.618-20.135 14.695-35.952 0.29-59.386 1.96-72.692 15.894-76.506-3.058,20.792-1.868,47.38 3.552,79.057 9.2,53.776 27.16,103.262 27.92,105.342 1.073,2.936 3.866,4.89 6.992,4.89h44.229c3.929,0 7.18-3.052 7.43-6.973l8.297-130.77zm169.961-146.232c-6.622,0-14.063-4.696-21.266-13.097 2.209-9.128 10.563-15.354 21.498-15.354 11.156,0 19.641,6.47 21.641,15.898-6.742,7.68-14.237,12.553-21.873,12.553zm-48.992-85.394c0-5.182 0.006-18.204 19.933-24.605l18.565,75.33c-7.363,2.485-13.208,7.513-16.463,14.086-2.039-3.003-4.034-6.299-5.959-9.864-9.616-17.811-16.076-39.893-16.076-54.947zm48.301,49.024l-18.706-75.901c5.415-0.887 11.819-1.397 19.398-1.397 7.583,0 13.99,0.493 19.407,1.354l-18.714,75.934-1.385,.01zm-11.232-112.25c4.737-5.052 5.157-11.314 3.987-16.653 28.767,5.11 33.927,30.89 34.847,39.317-7.467-1.659-16.353-2.6-26.911-2.6-8.151,0-15.466,0.54-22.005,1.625-0.353-10.545 3.928-15.124 10.082-21.689zm-37.15,32.235c-2.673,2.02-5.003,4.292-6.968,6.803l-2.791-2.791c-2.357-2.356-3.498-5.608-3.13-8.92l1.121-10.089 8.818,8.818c1.094,1.093 2.404,4.731 2.95,6.179zm-41.503,108.443l29.371-55.946c2.257,10.087 5.862,20.79 10.455,30.921l-26.032,49.805c-3.205-0.063-7.901-0.103-13.794-0.014v-24.766zm-204.066,111.094c-4.059,13.615-4.352,33.677-4.52,67.967-0.054,11.178-3.172,19.431-9.268,24.529-5.25,4.39-12.05,6.048-17.806,6.568 3.431-13.221 1.445-35.532-5.813-70.065-6.352-30.219-3.466-54.09 8.577-70.948 9.755-13.654 23.93-19.842 33.942-21.079 16.937-2.094 29.65,10.228 35.28,17.03-4.536,5.95-8.107,13.22-10.695,21.79-16.355,2.169-25.311,9.499-29.697,24.208zm93.181,165.935v-97.509c3.806-1.966 9.561-5.252 15.603-9.811l-6.814,107.32h-8.789zm185.327,0h-17.022l2.919-96.654c0.125-4.109-3.107-7.542-7.215-7.666-4.139-0.149-7.542,3.107-7.665,7.216l-2.934,97.104h-16.847v-96.679c0-18.815-11.85-35.86-29.487-42.415-0.1-0.037-0.202-0.073-0.303-0.106l-69.908-22.592c-2.345-0.757-4.911-0.306-6.856,1.204-1.944,1.511-3.016,3.885-2.863,6.343 1.745,27.921-37.139,45.052-37.522,45.218-2.737,1.173-4.512,3.865-4.512,6.842v102.184h-8.287c-4.752-13.849-18.217-55.096-25.545-98.023-7.881-46.175-10.313-103.804 22.859-116.125 71.197-26.445 153.822-23.124 154.649-23.086 2.866,0.125 5.59-1.427 6.928-3.989l23.422-44.811c12.59,20.594 27.452,31.836 42.324,31.836 2.068,0 4.127-0.201 6.173-0.587l-22.308,254.786zm43.796-289.16c-3.262-6.951-9.376-12.245-17.134-14.738l18.556-75.291c19.901,6.231 19.908,18.981 19.908,24.708 0,19.531-8.774,46.881-21.33,65.321zm22.039-95.973c0.546-1.449 1.922-5.425 3.016-6.519l8.818-8.818 1.121,10.088c0.368,3.314-0.773,6.565-3.13,8.922l-3.079,3.079c-1.824-2.394-4.051-4.665-6.746-6.752z"/>
    <path d="m339.604,117.21c0.932-0.913 1.459-2.193 1.459-3.503 0-1.31-0.526-2.591-1.459-3.514-0.924-0.923-2.204-1.449-3.504-1.449-1.31,0-2.591,0.526-3.514,1.449-0.923,0.923-1.449,2.203-1.449,3.514 0,1.31 0.526,2.59 1.449,3.503 0.923,0.933 2.203,1.459 3.514,1.459 1.3,0 2.581-0.526 3.504-1.459z"/>
    <path d="m356.735,154.579c-1.042,0-2.065,0.427-2.809,1.161-0.735,0.744-1.161,1.767-1.161,2.819 0,1.042 0.427,2.065 1.161,2.799 0.744,0.744 1.767,1.171 2.809,1.171s2.074-0.427 2.809-1.171c0.744-0.734 1.161-1.757 1.161-2.799 0-1.052-0.417-2.075-1.161-2.819-0.734-0.734-1.757-1.161-2.809-1.161z"/>
    <path d="m376.666,154.579c-1.042,0-2.065,0.427-2.799,1.171-0.744,0.734-1.171,1.757-1.171,2.809 0,1.042 0.426,2.065 1.171,2.799 0.735,0.744 1.757,1.171 2.799,1.171s2.065-0.427 2.809-1.171c0.744-0.734 1.171-1.757 1.171-2.799 0-1.052-0.426-2.075-1.171-2.809-0.735-0.744-1.757-1.171-2.809-1.171z"/>
    <path d="m395.901,108.743c-1.31,0-2.591,0.526-3.514,1.449-0.923,0.923-1.459,2.203-1.459,3.514 0,1.31 0.536,2.58 1.459,3.503 0.923,0.933 2.203,1.459 3.514,1.459 1.3,0 2.58-0.526 3.504-1.459 0.923-0.923 1.459-2.203 1.459-3.503 0-1.31-0.536-2.581-1.459-3.514-0.923-0.923-2.204-1.449-3.504-1.449z"/>
  </g>
</svg>
