<?xml version="1.0" encoding="iso-8859-1"?>
<svg version="1.1" id="Capa_1" xmlns="http://www.w3.org/2000/svg" xmlns:xlink="http://www.w3.org/1999/xlink" x="0px" y="0px"
	 viewBox="0 0 238.057 238.057" style="enable-background:new 0 0 238.057 238.057;" xml:space="preserve">
<g>
	<path d="M237.098,120.165c-3.768-22.44-19.639-25.946-27.001-26.341c-2.271-0.122-4.387-1.274-5.627-3.182
		c-5.367-8.252-12.581-10.432-18.706-10.432c-2.743,0-5.268,0.438-7.311,0.962c-0.624,0.161-1.257,0.239-1.884,0.239
		c-2.277,0-4.469-1.036-5.851-2.929c-5.288-7.247-12.169-9.209-18.069-9.209c-1.464,0-2.867,0.121-4.171,0.312
		c-0.366,0.054-0.773,0.08-1.13,0.08c-3.963,0-7.348-3.176-7.348-7.27V19.557c0-10.982-8.264-16.473-16.5-16.473
		S107,8.575,107,19.557v105.355c0,8.237-6.688,14.193-14.111,14.193c-2.198,0-4.418-0.521-6.574-1.661
		c-10.055-5.314-20.859-9.973-32.109-14.377c-2.513-0.983-4.932-1.428-7.213-1.428c-15.43-0.002-24.113,20.331-7.044,31.316
		c19.591,12.608,44.432,19.509,54.092,33.769c5.972,8.815,18.531,34.141,23.399,44.024c1.226,2.487,3.756,4.224,6.528,4.224h76.996
		c3.649,0,6.735-2.869,7.216-6.486l4.059-30.628c0.145-1.086,0.538-2.171,1.139-3.087
		C234.602,162.428,240.668,141.432,237.098,120.165z"/>
	<path d="M48.333,84.973c0-3.313-2.687-6-6-6H21.434L75,24.961v20.9c0,3.313,2.687,6,6,6s6-2.687,6-6v-36
		c0-3.314-2.354-5.889-5.667-5.889h-35c-3.313,0-6,2.686-6,6s2.687,6,6,6h21.128L12,70.992v-21.13c0-3.313-2.686-6-6-6s-6,2.687-6,6
		v35c0,3.313,3.02,6.111,6.333,6.111h36C45.646,90.973,48.333,88.286,48.333,84.973z"/>
</g>
</svg>